<?xml version="1.0" encoding="UTF-8" standalone="no"?>
<!DOCTYPE svg PUBLIC "-//W3C//DTD SVG 1.1//EN"
 "http://www.w3.org/Graphics/SVG/1.1/DTD/svg11.dtd">
<!-- Generated by graphviz version 2.38.0 (20140413.2041)
 -->
<!-- Title: %3 Pages: 1 -->
<svg width="930pt" height="362pt"
 viewBox="0.00 0.00 930.00 361.56" xmlns="http://www.w3.org/2000/svg" xmlns:xlink="http://www.w3.org/1999/xlink">
<g id="graph0" class="graph" transform="scale(1 1) rotate(0) translate(4 357.563)">
<title>%3</title>
<polygon fill="white" stroke="none" points="-4,4 -4,-357.563 926,-357.563 926,4 -4,4"/>
<!-- 0 -->
<g id="node1" class="node"><title>0</title>
<polygon fill="lightgray" stroke="black" points="143.5,-353.563 122.5,-353.563 122.5,-335.563 143.5,-335.563 143.5,-353.563"/>
<text text-anchor="middle" x="133" y="-342.363" font-family="Times,serif" font-size="9.00">0</text>
</g>
<!-- 5 -->
<g id="node6" class="node"><title>5</title>
<ellipse fill="lightblue" stroke="black" cx="423" cy="-219.016" rx="14.7" ry="14.7"/>
<text text-anchor="middle" x="423" y="-216.816" font-family="Times,serif" font-size="9.00">5</text>
</g>
<!-- 0&#45;&gt;5 -->
<g id="edge12" class="edge"><title>0&#45;&gt;5</title>
<path fill="none" stroke="green" stroke-width="0.248933" stroke-dasharray="1,5" d="M143.665,-339.02C185.792,-321.073 341.173,-254.876 400.12,-229.763"/>
<polygon fill="green" stroke="green" stroke-width="0.248933" points="401.821,-232.843 409.649,-225.704 399.077,-226.403 401.821,-232.843"/>
</g>
<!-- 6 -->
<g id="node7" class="node"><title>6</title>
<ellipse fill="white" stroke="black" cx="504" cy="-153.317" rx="14.7" ry="14.7"/>
<text text-anchor="middle" x="504" y="-151.117" font-family="Times,serif" font-size="9.00">6</text>
</g>
<!-- 0&#45;&gt;6 -->
<g id="edge25" class="edge"><title>0&#45;&gt;6</title>
<path fill="none" stroke="red" stroke-width="0.399772" d="M143.202,-335.55C161.751,-321.208 202.552,-290.707 240,-269.865 325.147,-222.477 433.546,-180.312 480.529,-162.853"/>
<polygon fill="red" stroke="red" stroke-width="0.399772" points="481.927,-166.068 490.099,-159.324 479.505,-159.5 481.927,-166.068"/>
</g>
<!-- 7 -->
<g id="node8" class="node"><title>7</title>
<ellipse fill="white" stroke="black" cx="485" cy="-87.6188" rx="14.7" ry="14.7"/>
<text text-anchor="middle" x="485" y="-85.4188" font-family="Times,serif" font-size="9.00">7</text>
</g>
<!-- 0&#45;&gt;7 -->
<g id="edge8" class="edge"><title>0&#45;&gt;7</title>
<path fill="none" stroke="red" stroke-width="0.439712" d="M138.243,-335.512C158.53,-304.998 235.267,-195.327 326,-138.468 368.946,-111.555 427.578,-98.1318 460.313,-92.339"/>
<polygon fill="red" stroke="red" stroke-width="0.439712" points="461.076,-95.7602 470.361,-90.6586 459.921,-88.856 461.076,-95.7602"/>
</g>
<!-- 8 -->
<g id="node9" class="node"><title>8</title>
<ellipse fill="white" stroke="black" cx="380" cy="-153.317" rx="14.7" ry="14.7"/>
<text text-anchor="middle" x="380" y="-151.117" font-family="Times,serif" font-size="9.00">8</text>
</g>
<!-- 0&#45;&gt;8 -->
<g id="edge16" class="edge"><title>0&#45;&gt;8</title>
<path fill="none" stroke="green" stroke-width="0.154723" d="M131.096,-335.413C128.188,-320.855 124.312,-290.023 138,-269.865 189.415,-194.151 304.56,-166.584 355.246,-157.866"/>
<polygon fill="green" stroke="green" stroke-width="0.154723" points="355.998,-161.29 365.312,-156.24 354.882,-154.38 355.998,-161.29"/>
</g>
<!-- 9 -->
<g id="node10" class="node"><title>9</title>
<ellipse fill="white" stroke="black" cx="423" cy="-284.714" rx="14.7" ry="14.7"/>
<text text-anchor="middle" x="423" y="-282.514" font-family="Times,serif" font-size="9.00">9</text>
</g>
<!-- 0&#45;&gt;9 -->
<g id="edge35" class="edge"><title>0&#45;&gt;9</title>
<path fill="none" stroke="green" stroke-width="0.330657" d="M143.665,-341.436C185.416,-333.108 338.41,-302.588 398.519,-290.598"/>
<polygon fill="green" stroke="green" stroke-width="0.330657" points="399.492,-293.973 408.614,-288.584 398.123,-287.108 399.492,-293.973"/>
</g>
<!-- 10 -->
<g id="node11" class="node"><title>10</title>
<ellipse fill="white" stroke="black" cx="454" cy="-18.3848" rx="18.2703" ry="18.2703"/>
<text text-anchor="middle" x="454" y="-16.1848" font-family="Times,serif" font-size="9.00">10</text>
</g>
<!-- 0&#45;&gt;10 -->
<g id="edge13" class="edge"><title>0&#45;&gt;10</title>
<path fill="none" stroke="red" stroke-width="0.185437" d="M122.116,-339.617C90.3518,-327.324 0,-286.514 0,-220.016 0,-220.016 0,-220.016 0,-152.317 0,-63.261 325.818,-29.6921 425.422,-21.5106"/>
<polygon fill="red" stroke="red" stroke-width="0.185437" points="425.95,-24.9797 435.64,-20.696 425.394,-18.0018 425.95,-24.9797"/>
</g>
<!-- 1 -->
<g id="node2" class="node"><title>1</title>
<polygon fill="lightgray" stroke="black" points="454.5,-353.563 433.5,-353.563 433.5,-335.563 454.5,-335.563 454.5,-353.563"/>
<text text-anchor="middle" x="444" y="-342.363" font-family="Times,serif" font-size="9.00">1</text>
</g>
<!-- 1&#45;&gt;5 -->
<g id="edge29" class="edge"><title>1&#45;&gt;5</title>
<path fill="none" stroke="red" stroke-width="0.725484" d="M445.739,-335.255C448.314,-321.469 452.299,-293.086 447,-269.865 444.733,-259.931 440.224,-249.671 435.72,-241.06"/>
<polygon fill="red" stroke="red" stroke-width="0.725484" points="438.679,-239.18 430.757,-232.145 432.563,-242.584 438.679,-239.18"/>
</g>
<!-- 1&#45;&gt;6 -->
<g id="edge27" class="edge"><title>1&#45;&gt;6</title>
<path fill="none" stroke="red" stroke-width="0.200862" d="M447.979,-335.261C452.077,-326.511 458.487,-312.265 463,-299.563 477.934,-257.529 491.138,-207.165 498.308,-178.141"/>
<polygon fill="red" stroke="red" stroke-width="0.200862" points="501.782,-178.668 500.752,-168.124 494.981,-177.009 501.782,-178.668"/>
</g>
<!-- 1&#45;&gt;7 -->
<g id="edge7" class="edge"><title>1&#45;&gt;7</title>
<path fill="none" stroke="green" stroke-width="0.538592" d="M452.611,-335.539C461.09,-327.235 473.912,-313.542 482,-299.563 512.988,-246.009 517.631,-229.165 528,-168.167 530.212,-155.154 532.599,-150.84 528,-138.468 523.134,-125.376 513.115,-113.424 503.972,-104.507"/>
<polygon fill="green" stroke="green" stroke-width="0.538592" points="506.054,-101.668 496.314,-97.4997 501.328,-106.833 506.054,-101.668"/>
</g>
<!-- 1&#45;&gt;8 -->
<g id="edge30" class="edge"><title>1&#45;&gt;8</title>
<path fill="none" stroke="green" stroke-width="0.690819" d="M433.454,-336.528C422.83,-328.812 406.911,-315.398 399,-299.563 379.548,-260.63 377.612,-208.841 378.467,-178.783"/>
<polygon fill="green" stroke="green" stroke-width="0.690819" points="381.98,-178.537 378.9,-168.4 374.986,-178.245 381.98,-178.537"/>
</g>
<!-- 1&#45;&gt;9 -->
<g id="edge38" class="edge"><title>1&#45;&gt;9</title>
<path fill="none" stroke="red" stroke-width="0.808492" d="M441.08,-335.52C438.537,-328.515 434.725,-318.012 431.255,-308.454"/>
<polygon fill="red" stroke="red" stroke-width="0.808492" points="434.533,-307.228 427.831,-299.022 427.953,-309.616 434.533,-307.228"/>
</g>
<!-- 1&#45;&gt;10 -->
<g id="edge10" class="edge"><title>1&#45;&gt;10</title>
<path fill="none" stroke="green" stroke-width="0.185951" d="M433.232,-338.722C419.537,-331.982 396.205,-318.438 384,-299.563 344.54,-238.539 331.471,-206.875 356,-138.468 371.102,-96.3505 408.247,-58.4766 432.221,-37.2528"/>
<polygon fill="green" stroke="green" stroke-width="0.185951" points="434.515,-39.8964 439.796,-30.7114 429.94,-34.5985 434.515,-39.8964"/>
</g>
<!-- 2 -->
<g id="node3" class="node"><title>2</title>
<polygon fill="lightgray" stroke="black" points="609.5,-353.563 588.5,-353.563 588.5,-335.563 609.5,-335.563 609.5,-353.563"/>
<text text-anchor="middle" x="599" y="-342.363" font-family="Times,serif" font-size="9.00">2</text>
</g>
<!-- 2&#45;&gt;5 -->
<g id="edge15" class="edge"><title>2&#45;&gt;5</title>
<path fill="none" stroke="green" stroke-width="0.186387" d="M588.255,-336.021C559.634,-315.929 481.174,-260.853 443.594,-234.472"/>
<polygon fill="green" stroke="green" stroke-width="0.186387" points="445.172,-231.304 434.976,-228.423 441.15,-237.033 445.172,-231.304"/>
</g>
<!-- 2&#45;&gt;6 -->
<g id="edge2" class="edge"><title>2&#45;&gt;6</title>
<path fill="none" stroke="red" stroke-width="0.382259" d="M599.949,-335.494C601.265,-321.577 602.6,-292.389 594,-269.865 578.558,-229.422 543.85,-191.668 522.331,-170.912"/>
<polygon fill="red" stroke="red" stroke-width="0.382259" points="524.478,-168.126 514.797,-163.82 519.679,-173.223 524.478,-168.126"/>
</g>
<!-- 2&#45;&gt;7 -->
<g id="edge20" class="edge"><title>2&#45;&gt;7</title>
<path fill="none" stroke="red" stroke-width="0.424365" d="M598.545,-335.436C596.582,-306.411 586.875,-206.005 544,-138.468 534.515,-123.528 519.131,-110.744 506.449,-101.863"/>
<polygon fill="red" stroke="red" stroke-width="0.424365" points="508.079,-98.7436 497.816,-96.112 504.198,-104.569 508.079,-98.7436"/>
</g>
<!-- 2&#45;&gt;8 -->
<g id="edge6" class="edge"><title>2&#45;&gt;8</title>
<path fill="none" stroke="green" stroke-width="0.106777" d="M591.841,-335.508C579.361,-321.612 552.603,-292.455 528,-269.865 493.856,-238.516 483.602,-232.607 447,-204.167 431.41,-192.053 413.449,-178.722 400.049,-168.896"/>
<polygon fill="green" stroke="green" stroke-width="0.106777" points="402.112,-166.069 391.974,-162.993 397.981,-171.72 402.112,-166.069"/>
</g>
<!-- 2&#45;&gt;9 -->
<g id="edge24" class="edge"><title>2&#45;&gt;9</title>
<path fill="none" stroke="green" stroke-width="0.342517" d="M588.255,-340.032C560.422,-330.883 485.458,-306.244 446.791,-293.534"/>
<polygon fill="green" stroke="green" stroke-width="0.342517" points="447.509,-290.086 436.916,-290.288 445.323,-296.736 447.509,-290.086"/>
</g>
<!-- 2&#45;&gt;10 -->
<g id="edge9" class="edge"><title>2&#45;&gt;10</title>
<path fill="none" stroke="red" stroke-width="0.174299" d="M609.824,-343.892C661.883,-344.869 884,-341.894 884,-220.016 884,-220.016 884,-220.016 884,-152.317 884,-68.0496 578.762,-31.415 482.63,-21.9669"/>
<polygon fill="red" stroke="red" stroke-width="0.174299" points="482.765,-18.4638 472.477,-20.9944 482.097,-25.4319 482.765,-18.4638"/>
</g>
<!-- 3 -->
<g id="node4" class="node"><title>3</title>
<polygon fill="lightgray" stroke="black" points="761.5,-353.563 740.5,-353.563 740.5,-335.563 761.5,-335.563 761.5,-353.563"/>
<text text-anchor="middle" x="751" y="-342.363" font-family="Times,serif" font-size="9.00">3</text>
</g>
<!-- 3&#45;&gt;5 -->
<g id="edge19" class="edge"><title>3&#45;&gt;5</title>
<path fill="none" stroke="green" stroke-width="0.20536" d="M740.458,-339.593C694.557,-322.303 511.507,-253.354 446.254,-228.775"/>
<polygon fill="green" stroke="green" stroke-width="0.20536" points="447.423,-225.475 436.831,-225.226 444.956,-232.026 447.423,-225.475"/>
</g>
<!-- 3&#45;&gt;6 -->
<g id="edge33" class="edge"><title>3&#45;&gt;6</title>
<path fill="none" stroke="red" stroke-width="0.605986" d="M751.644,-335.164C752.445,-321.247 752.959,-292.68 746,-269.865 736.159,-237.601 734.995,-224.393 708,-204.167 653.629,-163.428 570.32,-155.585 529.012,-154.333"/>
<polygon fill="red" stroke="red" stroke-width="0.605986" points="529.062,-150.833 518.995,-154.136 528.924,-157.832 529.062,-150.833"/>
</g>
<!-- 3&#45;&gt;7 -->
<g id="edge14" class="edge"><title>3&#45;&gt;7</title>
<path fill="none" stroke="red" stroke-width="0.171709" d="M744.995,-335.369C723.292,-306.119 645.969,-205.046 566,-138.468 547.648,-123.189 524.182,-109.265 507.236,-100.04"/>
<polygon fill="red" stroke="red" stroke-width="0.171709" points="508.571,-96.7862 498.099,-95.1772 505.282,-102.965 508.571,-96.7862"/>
</g>
<!-- 3&#45;&gt;8 -->
<g id="edge28" class="edge"><title>3&#45;&gt;8</title>
<path fill="none" stroke="green" stroke-width="0.28252" stroke-dasharray="1,5" d="M740.485,-338.048C704.438,-319.158 582.484,-255.403 481,-204.167 453.998,-190.534 422.751,-175.176 402.248,-165.155"/>
<polygon fill="green" stroke="green" stroke-width="0.28252" points="403.634,-161.936 393.112,-160.695 400.563,-168.227 403.634,-161.936"/>
</g>
<!-- 3&#45;&gt;9 -->
<g id="edge11" class="edge"><title>3&#45;&gt;9</title>
<path fill="none" stroke="red" stroke-width="0.114203" d="M740.458,-341.704C694.859,-333.662 513.911,-301.748 447.558,-290.045"/>
<polygon fill="red" stroke="red" stroke-width="0.114203" points="448.04,-286.577 437.584,-288.287 446.825,-293.47 448.04,-286.577"/>
</g>
<!-- 3&#45;&gt;10 -->
<g id="edge26" class="edge"><title>3&#45;&gt;10</title>
<path fill="none" stroke="red" stroke-width="0.650383" d="M761.697,-341.369C799.133,-333.003 922,-299.493 922,-220.016 922,-220.016 922,-220.016 922,-152.317 922,-93.7705 870.989,-95.4167 817,-72.7696 700.356,-23.8401 546.255,-18.6975 482.992,-18.8523"/>
<polygon fill="red" stroke="red" stroke-width="0.650383" points="482.581,-15.3551 472.607,-18.9291 482.633,-22.3549 482.581,-15.3551"/>
</g>
<!-- 4 -->
<g id="node5" class="node"><title>4</title>
<polygon fill="lightgray" stroke="black" points="314.5,-353.563 293.5,-353.563 293.5,-335.563 314.5,-335.563 314.5,-353.563"/>
<text text-anchor="middle" x="304" y="-342.363" font-family="Times,serif" font-size="9.00">4</text>
</g>
<!-- 4&#45;&gt;5 -->
<g id="edge34" class="edge"><title>4&#45;&gt;5</title>
<path fill="none" stroke="green" stroke-width="0.651911" d="M304.674,-335.289C306.275,-320.534 311.506,-289.4 328,-269.865 346.587,-247.851 377.398,-234.24 398.873,-226.915"/>
<polygon fill="green" stroke="green" stroke-width="0.651911" points="400.112,-230.193 408.572,-223.814 397.981,-223.526 400.112,-230.193"/>
</g>
<!-- 4&#45;&gt;6 -->
<g id="edge23" class="edge"><title>4&#45;&gt;6</title>
<path fill="none" stroke="red" stroke-width="0.430341" d="M314.22,-335.547C331.579,-321.951 367.964,-293.539 399,-269.865 420.202,-253.692 428.35,-252.925 447,-233.865 464.645,-215.832 480.999,-191.953 491.622,-175.078"/>
<polygon fill="red" stroke="red" stroke-width="0.430341" points="494.639,-176.855 496.907,-166.506 488.68,-173.182 494.639,-176.855"/>
</g>
<!-- 4&#45;&gt;7 -->
<g id="edge1" class="edge"><title>4&#45;&gt;7</title>
<path fill="none" stroke="red" stroke-width="0.252355" d="M302.443,-335.328C300.103,-321.648 296.328,-293.414 300,-269.865 309.781,-207.142 308.486,-180.566 356,-138.468 386.117,-111.784 432.087,-98.6736 460.246,-92.8009"/>
<polygon fill="red" stroke="red" stroke-width="0.252355" points="460.945,-96.2306 470.096,-90.8912 459.613,-89.3585 460.945,-96.2306"/>
</g>
<!-- 4&#45;&gt;8 -->
<g id="edge4" class="edge"><title>4&#45;&gt;8</title>
<path fill="none" stroke="red" stroke-width="0.282563" d="M303.288,-335.142C302.389,-321.195 301.738,-292.586 309,-269.865 320.907,-232.611 347.256,-195.053 364.291,-173.271"/>
<polygon fill="red" stroke="red" stroke-width="0.282563" points="367.227,-175.204 370.74,-165.208 361.76,-170.832 367.227,-175.204"/>
</g>
<!-- 4&#45;&gt;9 -->
<g id="edge37" class="edge"><title>4&#45;&gt;9</title>
<path fill="none" stroke="red" stroke-width="0.613284" d="M314.56,-338.43C333.828,-329.063 375.064,-309.017 400.767,-296.522"/>
<polygon fill="red" stroke="red" stroke-width="0.613284" points="402.316,-299.661 409.78,-292.141 399.256,-293.365 402.316,-299.661"/>
</g>
<!-- 5&#45;&gt;6 -->
<g id="edge5" class="edge"><title>5&#45;&gt;6</title>
<path fill="none" stroke="green" stroke-width="0.158" stroke-dasharray="1,5" d="M431.842,-206.92C444.17,-195.732 466.017,-178.493 482.602,-166.826"/>
<polygon fill="green" stroke="green" stroke-width="0.158" points="484.88,-169.509 491.18,-160.991 480.943,-163.721 484.88,-169.509"/>
</g>
<!-- 5&#45;&gt;8 -->
<g id="edge32" class="edge"><title>5&#45;&gt;8</title>
<path fill="none" stroke="green" stroke-width="0.157219" d="M411.939,-208.889C404.57,-200.504 395.425,-187.734 388.604,-176.655"/>
<polygon fill="green" stroke="green" stroke-width="0.157219" points="391.558,-174.772 383.512,-167.88 385.504,-178.286 391.558,-174.772"/>
</g>
<!-- 6&#45;&gt;5 -->
<g id="edge18" class="edge"><title>6&#45;&gt;5</title>
<path fill="none" stroke="green" stroke-width="0.825262" d="M495.243,-165.335C482.989,-176.469 461.227,-193.651 444.633,-205.342"/>
<polygon fill="green" stroke="green" stroke-width="0.825262" points="442.331,-202.675 436.039,-211.199 446.273,-208.46 442.331,-202.675"/>
</g>
<!-- 6&#45;&gt;7 -->
<g id="edge22" class="edge"><title>6&#45;&gt;7</title>
<path fill="none" stroke="green" stroke-width="0.501717" stroke-dasharray="1,5" d="M499.971,-138.808C497.628,-130.954 494.612,-120.843 491.902,-111.757"/>
<polygon fill="green" stroke="green" stroke-width="0.501717" points="495.236,-110.69 489.024,-102.108 488.528,-112.691 495.236,-110.69"/>
</g>
<!-- 7&#45;&gt;5 -->
<g id="edge31" class="edge"><title>7&#45;&gt;5</title>
<path fill="none" stroke="green" stroke-width="0.399992" stroke-dasharray="1,5" d="M478.853,-101.447C468.287,-123.5 446.56,-168.844 433.538,-196.022"/>
<polygon fill="green" stroke="green" stroke-width="0.399992" points="430.336,-194.605 429.171,-205.136 436.649,-197.63 430.336,-194.605"/>
</g>
<!-- 7&#45;&gt;10 -->
<g id="edge3" class="edge"><title>7&#45;&gt;10</title>
<path fill="none" stroke="red" stroke-width="0.437372" stroke-dasharray="1,5" d="M479.023,-73.6554C475.275,-65.5275 470.315,-54.7697 465.8,-44.9769"/>
<polygon fill="red" stroke="red" stroke-width="0.437372" points="468.86,-43.2545 461.494,-35.6388 462.503,-46.1855 468.86,-43.2545"/>
</g>
<!-- 8&#45;&gt;5 -->
<g id="edge17" class="edge"><title>8&#45;&gt;5</title>
<path fill="none" stroke="green" stroke-width="0.222423" stroke-dasharray="1,5" d="M391.27,-163.682C398.628,-172.099 407.704,-184.793 414.467,-195.794"/>
<polygon fill="green" stroke="green" stroke-width="0.222423" points="411.474,-197.61 419.517,-204.507 417.531,-194.1 411.474,-197.61"/>
</g>
<!-- 9&#45;&gt;5 -->
<g id="edge36" class="edge"><title>9&#45;&gt;5</title>
<path fill="none" stroke="green" stroke-width="0.573085" d="M423,-269.577C423,-262.155 423,-252.851 423,-244.315"/>
<polygon fill="green" stroke="green" stroke-width="0.573085" points="426.5,-244.113 423,-234.113 419.5,-244.113 426.5,-244.113"/>
</g>
<!-- 10&#45;&gt;5 -->
<g id="edge21" class="edge"><title>10&#45;&gt;5</title>
<path fill="none" stroke="red" stroke-width="0.220919" d="M451.303,-36.6665C445.763,-72.1658 433.09,-153.364 426.753,-193.97"/>
<polygon fill="red" stroke="red" stroke-width="0.220919" points="423.264,-193.628 425.18,-204.048 430.18,-194.708 423.264,-193.628"/>
</g>
</g>
</svg>
