<?xml version="1.0" encoding="UTF-8" standalone="no"?>
<!DOCTYPE svg PUBLIC "-//W3C//DTD SVG 1.1//EN"
 "http://www.w3.org/Graphics/SVG/1.1/DTD/svg11.dtd">
<!-- Generated by graphviz version 2.38.0 (20140413.2041)
 -->
<!-- Title: %3 Pages: 1 -->
<svg width="185pt" height="92pt"
 viewBox="0.00 0.00 185.00 91.70" xmlns="http://www.w3.org/2000/svg" xmlns:xlink="http://www.w3.org/1999/xlink">
<g id="graph0" class="graph" transform="scale(1 1) rotate(0) translate(4 87.6985)">
<title>%3</title>
<polygon fill="white" stroke="none" points="-4,4 -4,-87.6985 181,-87.6985 181,4 -4,4"/>
<!-- 0 -->
<g id="node1" class="node"><title>0</title>
<polygon fill="lightgray" stroke="black" points="21,-83.6985 1.77636e-15,-83.6985 1.77636e-15,-65.6985 21,-65.6985 21,-83.6985"/>
<text text-anchor="middle" x="10.5" y="-72.4985" font-family="Times,serif" font-size="9.00">0</text>
</g>
<!-- 5 -->
<g id="node6" class="node"><title>5</title>
<ellipse fill="lightblue" stroke="black" cx="88.5" cy="-14.8492" rx="14.7" ry="14.7"/>
<text text-anchor="middle" x="88.5" y="-12.6492" font-family="Times,serif" font-size="9.00">5</text>
</g>
<!-- 0&#45;&gt;5 -->
<g id="edge4" class="edge"><title>0&#45;&gt;5</title>
<path fill="none" stroke="green" stroke-width="0.100044" d="M21.0194,-65.8967C33.1858,-56.8734 53.4829,-41.8199 68.6454,-30.5745"/>
<polygon fill="green" stroke="green" stroke-width="0.100044" points="70.9321,-33.2362 76.8792,-24.4679 66.7622,-27.6137 70.9321,-33.2362"/>
</g>
<!-- 1 -->
<g id="node2" class="node"><title>1</title>
<polygon fill="lightgray" stroke="black" points="60,-83.6985 39,-83.6985 39,-65.6985 60,-65.6985 60,-83.6985"/>
<text text-anchor="middle" x="49.5" y="-72.4985" font-family="Times,serif" font-size="9.00">1</text>
</g>
<!-- 1&#45;&gt;5 -->
<g id="edge2" class="edge"><title>1&#45;&gt;5</title>
<path fill="none" stroke="red" stroke-width="0.212549" d="M54.9228,-65.6548C60.0382,-58.067 67.9211,-46.3743 74.7636,-36.2246"/>
<polygon fill="red" stroke="red" stroke-width="0.212549" points="77.7253,-38.0926 80.4133,-27.8444 71.9211,-34.1796 77.7253,-38.0926"/>
</g>
<!-- 2 -->
<g id="node3" class="node"><title>2</title>
<polygon fill="lightgray" stroke="black" points="99,-83.6985 78,-83.6985 78,-65.6985 99,-65.6985 99,-83.6985"/>
<text text-anchor="middle" x="88.5" y="-72.4985" font-family="Times,serif" font-size="9.00">2</text>
</g>
<!-- 2&#45;&gt;5 -->
<g id="edge3" class="edge"><title>2&#45;&gt;5</title>
<path fill="none" stroke="green" stroke-width="0.31549" d="M88.5,-65.6548C88.5,-59.0498 88.5,-49.3344 88.5,-40.2339"/>
<polygon fill="green" stroke="green" stroke-width="0.31549" points="92.0001,-40.0563 88.5,-30.0563 85.0001,-40.0564 92.0001,-40.0563"/>
</g>
<!-- 3 -->
<g id="node4" class="node"><title>3</title>
<polygon fill="lightgray" stroke="black" points="138,-83.6985 117,-83.6985 117,-65.6985 138,-65.6985 138,-83.6985"/>
<text text-anchor="middle" x="127.5" y="-72.4985" font-family="Times,serif" font-size="9.00">3</text>
</g>
<!-- 3&#45;&gt;5 -->
<g id="edge5" class="edge"><title>3&#45;&gt;5</title>
<path fill="none" stroke="green" stroke-width="0.177051" d="M122.077,-65.6548C116.962,-58.067 109.079,-46.3743 102.236,-36.2246"/>
<polygon fill="green" stroke="green" stroke-width="0.177051" points="105.079,-34.1796 96.5867,-27.8444 99.2747,-38.0926 105.079,-34.1796"/>
</g>
<!-- 4 -->
<g id="node5" class="node"><title>4</title>
<polygon fill="lightgray" stroke="black" points="177,-83.6985 156,-83.6985 156,-65.6985 177,-65.6985 177,-83.6985"/>
<text text-anchor="middle" x="166.5" y="-72.4985" font-family="Times,serif" font-size="9.00">4</text>
</g>
<!-- 4&#45;&gt;5 -->
<g id="edge1" class="edge"><title>4&#45;&gt;5</title>
<path fill="none" stroke="red" stroke-width="0.476468" d="M155.981,-65.8967C143.814,-56.8734 123.517,-41.8199 108.355,-30.5745"/>
<polygon fill="red" stroke="red" stroke-width="0.476468" points="110.238,-27.6137 100.121,-24.4679 106.068,-33.2362 110.238,-27.6137"/>
</g>
</g>
</svg>
