<?xml version="1.0" encoding="UTF-8" standalone="no"?>
<!DOCTYPE svg PUBLIC "-//W3C//DTD SVG 1.1//EN"
 "http://www.w3.org/Graphics/SVG/1.1/DTD/svg11.dtd">
<!-- Generated by graphviz version 2.38.0 (20140413.2041)
 -->
<!-- Title: %3 Pages: 1 -->
<svg width="332pt" height="164pt"
 viewBox="0.00 0.00 332.49 164.47" xmlns="http://www.w3.org/2000/svg" xmlns:xlink="http://www.w3.org/1999/xlink">
<g id="graph0" class="graph" transform="scale(1 1) rotate(0) translate(4 160.468)">
<title>%3</title>
<polygon fill="white" stroke="none" points="-4,4 -4,-160.468 328.494,-160.468 328.494,4 -4,4"/>
<!-- 0 -->
<g id="node1" class="node"><title>0</title>
<polygon fill="lightgray" stroke="black" points="78.0534,-156.468 57.0534,-156.468 57.0534,-138.468 78.0534,-138.468 78.0534,-156.468"/>
<text text-anchor="middle" x="67.5534" y="-145.268" font-family="Times,serif" font-size="9.00">0</text>
</g>
<!-- 5 -->
<g id="node6" class="node"><title>5</title>
<ellipse fill="lightblue" stroke="black" cx="164.553" cy="-14.8492" rx="14.7" ry="14.7"/>
<text text-anchor="middle" x="164.553" y="-12.6492" font-family="Times,serif" font-size="9.00">5</text>
</g>
<!-- 0&#45;&gt;5 -->
<g id="edge11" class="edge"><title>0&#45;&gt;5</title>
<path fill="none" stroke="green" stroke-width="0.274088" d="M56.9642,-142.466C42.4962,-136.349 17.141,-123.159 6.5534,-102.468 -0.890703,-87.9199 -3.10858,-78.8783 6.5534,-65.6985 37.2226,-23.8629 103.092,-16.2321 139.347,-15.3756"/>
<polygon fill="green" stroke="green" stroke-width="0.274088" points="139.603,-18.8738 149.576,-15.2969 139.549,-11.874 139.603,-18.8738"/>
</g>
<!-- 6 -->
<g id="node7" class="node"><title>6</title>
<ellipse fill="white" stroke="black" cx="190.553" cy="-84.0833" rx="14.7" ry="14.7"/>
<text text-anchor="middle" x="190.553" y="-81.8833" font-family="Times,serif" font-size="9.00">6</text>
</g>
<!-- 0&#45;&gt;6 -->
<g id="edge28" class="edge"><title>0&#45;&gt;6</title>
<path fill="none" stroke="green" stroke-width="0.362436" d="M78.1647,-141.901C102.004,-131.62 158.363,-107.185 166.553,-102.468 167.891,-101.698 169.245,-100.869 170.592,-100.007"/>
<polygon fill="green" stroke="green" stroke-width="0.362436" points="172.929,-102.646 179.163,-94.0786 168.947,-96.8886 172.929,-102.646"/>
</g>
<!-- 7 -->
<g id="node8" class="node"><title>7</title>
<ellipse fill="white" stroke="black" cx="276.553" cy="-84.0833" rx="14.7" ry="14.7"/>
<text text-anchor="middle" x="276.553" y="-81.8833" font-family="Times,serif" font-size="9.00">7</text>
</g>
<!-- 0&#45;&gt;7 -->
<g id="edge7" class="edge"><title>0&#45;&gt;7</title>
<path fill="none" stroke="green" stroke-width="0.148752" d="M78.314,-141.663C80.9814,-140.548 83.8504,-139.413 86.5534,-138.468 87.5584,-138.117 201.645,-106.1 252.528,-91.8233"/>
<polygon fill="green" stroke="green" stroke-width="0.148752" points="253.681,-95.1352 262.364,-89.064 251.79,-88.3954 253.681,-95.1352"/>
</g>
<!-- 8 -->
<g id="node9" class="node"><title>8</title>
<ellipse fill="white" stroke="black" cx="40.5534" cy="-84.0833" rx="14.7" ry="14.7"/>
<text text-anchor="middle" x="40.5534" y="-81.8833" font-family="Times,serif" font-size="9.00">8</text>
</g>
<!-- 0&#45;&gt;8 -->
<g id="edge15" class="edge"><title>0&#45;&gt;8</title>
<path fill="none" stroke="green" stroke-width="0.389663" d="M64.0236,-138.443C60.5653,-130.581 55.1347,-118.234 50.368,-107.397"/>
<polygon fill="green" stroke="green" stroke-width="0.389663" points="53.4827,-105.785 46.2526,-98.0404 47.0751,-108.603 53.4827,-105.785"/>
</g>
<!-- 9 -->
<g id="node10" class="node"><title>9</title>
<ellipse fill="white" stroke="black" cx="88.5534" cy="-84.0833" rx="14.7" ry="14.7"/>
<text text-anchor="middle" x="88.5534" y="-81.8833" font-family="Times,serif" font-size="9.00">9</text>
</g>
<!-- 0&#45;&gt;9 -->
<g id="edge33" class="edge"><title>0&#45;&gt;9</title>
<path fill="none" stroke="red" stroke-width="0.319172" d="M70.2988,-138.443C72.9274,-130.759 77.0211,-118.793 80.6662,-108.138"/>
<polygon fill="red" stroke="red" stroke-width="0.319172" points="84.0357,-109.102 83.9611,-98.507 77.4126,-106.836 84.0357,-109.102"/>
</g>
<!-- 10 -->
<g id="node11" class="node"><title>10</title>
<ellipse fill="white" stroke="black" cx="139.553" cy="-84.0833" rx="18.2703" ry="18.2703"/>
<text text-anchor="middle" x="139.553" y="-81.8833" font-family="Times,serif" font-size="9.00">10</text>
</g>
<!-- 0&#45;&gt;10 -->
<g id="edge12" class="edge"><title>0&#45;&gt;10</title>
<path fill="none" stroke="green" stroke-width="0.15332" d="M76.9661,-138.443C87.32,-129.616 104.303,-115.136 117.968,-103.487"/>
<polygon fill="green" stroke="green" stroke-width="0.15332" points="120.619,-105.826 125.958,-96.6744 116.077,-100.499 120.619,-105.826"/>
</g>
<!-- 1 -->
<g id="node2" class="node"><title>1</title>
<polygon fill="lightgray" stroke="black" points="117.053,-156.468 96.0534,-156.468 96.0534,-138.468 117.053,-138.468 117.053,-156.468"/>
<text text-anchor="middle" x="106.553" y="-145.268" font-family="Times,serif" font-size="9.00">1</text>
</g>
<!-- 1&#45;&gt;5 -->
<g id="edge24" class="edge"><title>1&#45;&gt;5</title>
<path fill="none" stroke="red" stroke-width="0.54126" d="M95.8363,-141.987C72.9774,-132.324 21.1352,-109.808 16.5534,-102.468 7.89992,-88.6052 7.01884,-78.9708 16.5534,-65.6985 44.6729,-26.5556 105.102,-17.7373 139.411,-16.0033"/>
<polygon fill="red" stroke="red" stroke-width="0.54126" points="139.683,-19.4962 149.559,-15.6598 139.446,-12.5002 139.683,-19.4962"/>
</g>
<!-- 1&#45;&gt;6 -->
<g id="edge26" class="edge"><title>1&#45;&gt;6</title>
<path fill="none" stroke="green" stroke-width="0.196488" d="M117.192,-138.694C130.527,-128.949 153.662,-112.043 170.392,-99.8167"/>
<polygon fill="green" stroke="green" stroke-width="0.196488" points="172.916,-102.307 178.925,-93.5813 168.786,-96.6556 172.916,-102.307"/>
</g>
<!-- 1&#45;&gt;7 -->
<g id="edge32" class="edge"><title>1&#45;&gt;7</title>
<path fill="none" stroke="green" stroke-width="0.234189" d="M117.36,-141.789C120.026,-140.67 122.883,-139.501 125.553,-138.468 170.324,-121.146 223.384,-102.908 253.191,-92.8675"/>
<polygon fill="green" stroke="green" stroke-width="0.234189" points="254.346,-96.1721 262.713,-89.673 252.119,-89.5356 254.346,-96.1721"/>
</g>
<!-- 1&#45;&gt;8 -->
<g id="edge29" class="edge"><title>1&#45;&gt;8</title>
<path fill="none" stroke="red" stroke-width="0.465621" d="M97.9251,-138.443C87.9711,-129.185 71.3329,-113.71 58.5301,-101.803"/>
<polygon fill="red" stroke="red" stroke-width="0.465621" points="60.8544,-99.1848 51.1483,-94.9373 56.0871,-104.311 60.8544,-99.1848"/>
</g>
<!-- 1&#45;&gt;9 -->
<g id="edge35" class="edge"><title>1&#45;&gt;9</title>
<path fill="none" stroke="red" stroke-width="0.286153" d="M104.2,-138.443C101.947,-130.759 98.4382,-118.793 95.3138,-108.138"/>
<polygon fill="red" stroke="red" stroke-width="0.286153" points="98.6622,-107.118 92.4897,-98.507 91.945,-109.088 98.6622,-107.118"/>
</g>
<!-- 1&#45;&gt;10 -->
<g id="edge9" class="edge"><title>1&#45;&gt;10</title>
<path fill="none" stroke="green" stroke-width="0.176134" d="M110.868,-138.443C114.773,-131.178 120.738,-120.084 126.218,-109.889"/>
<polygon fill="green" stroke="green" stroke-width="0.176134" points="129.389,-111.382 131.042,-100.916 123.224,-108.067 129.389,-111.382"/>
</g>
<!-- 2 -->
<g id="node3" class="node"><title>2</title>
<polygon fill="lightgray" stroke="black" points="195.053,-156.468 174.053,-156.468 174.053,-138.468 195.053,-138.468 195.053,-156.468"/>
<text text-anchor="middle" x="184.553" y="-145.268" font-family="Times,serif" font-size="9.00">2</text>
</g>
<!-- 2&#45;&gt;5 -->
<g id="edge14" class="edge"><title>2&#45;&gt;5</title>
<path fill="none" stroke="red" stroke-width="0.31067" d="M195.372,-141.818C198.037,-140.698 200.891,-139.522 203.553,-138.468 246.309,-121.542 274.297,-140.219 300.553,-102.468 309.885,-89.0519 309.912,-79.0957 300.553,-65.6985 275.563,-29.9221 221.958,-19.7432 190.017,-16.8977"/>
<polygon fill="red" stroke="red" stroke-width="0.31067" points="189.927,-13.3826 179.705,-16.1671 189.432,-20.3651 189.927,-13.3826"/>
</g>
<!-- 2&#45;&gt;6 -->
<g id="edge3" class="edge"><title>2&#45;&gt;6</title>
<path fill="none" stroke="red" stroke-width="0.141505" d="M185.338,-138.443C186.064,-131.014 187.181,-119.582 188.196,-109.203"/>
<polygon fill="red" stroke="red" stroke-width="0.141505" points="191.706,-109.272 189.195,-98.9789 184.739,-108.591 191.706,-109.272"/>
</g>
<!-- 2&#45;&gt;7 -->
<g id="edge19" class="edge"><title>2&#45;&gt;7</title>
<path fill="none" stroke="red" stroke-width="0.207158" d="M195.107,-139.426C209.952,-129.521 237.295,-111.278 256.178,-98.6784"/>
<polygon fill="red" stroke="red" stroke-width="0.207158" points="258.3,-101.47 264.676,-93.008 254.415,-95.6469 258.3,-101.47"/>
</g>
<!-- 2&#45;&gt;8 -->
<g id="edge6" class="edge"><title>2&#45;&gt;8</title>
<path fill="none" stroke="green" stroke-width="0.122265" d="M173.993,-142.164C170.955,-140.947 167.63,-139.637 164.553,-138.468 120.395,-121.694 106.316,-124.541 64.5534,-102.468 63.1888,-101.747 61.8144,-100.956 60.4513,-100.121"/>
<polygon fill="green" stroke="green" stroke-width="0.122265" points="62.0788,-96.9953 51.8424,-94.2627 58.1404,-102.782 62.0788,-96.9953"/>
</g>
<!-- 2&#45;&gt;9 -->
<g id="edge23" class="edge"><title>2&#45;&gt;9</title>
<path fill="none" stroke="green" stroke-width="0.323209" d="M173.654,-140.167C159.405,-131.849 133.766,-116.601 112.553,-102.468 111.269,-101.612 109.956,-100.718 108.639,-99.8068"/>
<polygon fill="green" stroke="green" stroke-width="0.323209" points="110.319,-96.7068 100.143,-93.7581 106.259,-102.409 110.319,-96.7068"/>
</g>
<!-- 2&#45;&gt;10 -->
<g id="edge8" class="edge"><title>2&#45;&gt;10</title>
<path fill="none" stroke="red" stroke-width="0.311771" d="M178.67,-138.443C172.956,-130.648 164.01,-118.444 156.114,-107.674"/>
<polygon fill="red" stroke="red" stroke-width="0.311771" points="158.825,-105.452 150.09,-99.4559 153.179,-109.59 158.825,-105.452"/>
</g>
<!-- 3 -->
<g id="node4" class="node"><title>3</title>
<polygon fill="lightgray" stroke="black" points="156.053,-156.468 135.053,-156.468 135.053,-138.468 156.053,-138.468 156.053,-156.468"/>
<text text-anchor="middle" x="145.553" y="-145.268" font-family="Times,serif" font-size="9.00">3</text>
</g>
<!-- 3&#45;&gt;5 -->
<g id="edge18" class="edge"><title>3&#45;&gt;5</title>
<path fill="none" stroke="green" stroke-width="0.252681" d="M156.213,-141.283C173.93,-132.419 208.132,-114.178 214.553,-102.468 222.411,-88.1388 220.819,-80.7918 214.553,-65.6985 208.487,-51.0837 195.824,-38.5324 184.76,-29.6798"/>
<polygon fill="green" stroke="green" stroke-width="0.252681" points="186.844,-26.8678 176.747,-23.6583 182.639,-32.4639 186.844,-26.8678"/>
</g>
<!-- 3&#45;&gt;6 -->
<g id="edge31" class="edge"><title>3&#45;&gt;6</title>
<path fill="none" stroke="green" stroke-width="0.19057" d="M151.436,-138.443C157.663,-129.949 167.727,-116.221 176.087,-104.817"/>
<polygon fill="green" stroke="green" stroke-width="0.19057" points="178.967,-106.809 182.056,-96.6744 173.321,-102.67 178.967,-106.809"/>
</g>
<!-- 3&#45;&gt;7 -->
<g id="edge13" class="edge"><title>3&#45;&gt;7</title>
<path fill="none" stroke="red" stroke-width="0.20808" d="M156.097,-142.014C180.39,-131.737 238.886,-106.91 247.553,-102.468 250.198,-101.113 252.931,-99.6133 255.613,-98.0801"/>
<polygon fill="red" stroke="red" stroke-width="0.20808" points="257.529,-101.013 264.34,-92.8968 253.954,-94.9946 257.529,-101.013"/>
</g>
<!-- 3&#45;&gt;8 -->
<g id="edge27" class="edge"><title>3&#45;&gt;8</title>
<path fill="none" stroke="green" stroke-width="0.126949" d="M134.819,-141.197C119.069,-133.339 88.9249,-117.824 64.5534,-102.468 63.2475,-101.645 61.9181,-100.776 60.5886,-99.8839"/>
<polygon fill="green" stroke="green" stroke-width="0.126949" points="62.2544,-96.7763 52.0626,-93.8818 58.2249,-102.5 62.2544,-96.7763"/>
</g>
<!-- 3&#45;&gt;9 -->
<g id="edge10" class="edge"><title>3&#45;&gt;9</title>
<path fill="none" stroke="green" stroke-width="0.338914" d="M138.102,-138.443C129.863,-129.571 116.324,-114.99 105.478,-103.31"/>
<polygon fill="green" stroke="green" stroke-width="0.338914" points="107.868,-100.74 98.4983,-95.7932 102.738,-105.503 107.868,-100.74"/>
</g>
<!-- 3&#45;&gt;10 -->
<g id="edge25" class="edge"><title>3&#45;&gt;10</title>
<path fill="none" stroke="red" stroke-width="0.173241" d="M144.769,-138.443C144.123,-131.832 143.167,-122.05 142.249,-112.661"/>
<polygon fill="red" stroke="red" stroke-width="0.173241" points="145.704,-112.029 141.248,-102.417 138.737,-112.71 145.704,-112.029"/>
</g>
<!-- 4 -->
<g id="node5" class="node"><title>4</title>
<polygon fill="lightgray" stroke="black" points="234.053,-156.468 213.053,-156.468 213.053,-138.468 234.053,-138.468 234.053,-156.468"/>
<text text-anchor="middle" x="223.553" y="-145.268" font-family="Times,serif" font-size="9.00">4</text>
</g>
<!-- 4&#45;&gt;5 -->
<g id="edge5" class="edge"><title>4&#45;&gt;5</title>
<path fill="none" stroke="red" stroke-width="0.336124" d="M234.122,-145.166C254.484,-142.023 298.793,-131.964 317.553,-102.468 326.324,-88.6789 327.154,-78.9233 317.553,-65.6985 288.232,-25.3062 225.315,-17.0137 189.978,-15.6898"/>
<polygon fill="red" stroke="red" stroke-width="0.336124" points="189.622,-12.1817 179.551,-15.4729 189.477,-19.1802 189.622,-12.1817"/>
</g>
<!-- 4&#45;&gt;6 -->
<g id="edge22" class="edge"><title>4&#45;&gt;6</title>
<path fill="none" stroke="green" stroke-width="0.374158" d="M219.239,-138.443C214.915,-130.4 208.069,-117.664 202.148,-106.652"/>
<polygon fill="green" stroke="green" stroke-width="0.374158" points="205.089,-104.73 197.271,-97.5794 198.924,-108.045 205.089,-104.73"/>
</g>
<!-- 4&#45;&gt;7 -->
<g id="edge2" class="edge"><title>4&#45;&gt;7</title>
<path fill="none" stroke="green" stroke-width="0.467286" d="M230.482,-138.443C238.069,-129.656 250.49,-115.27 260.525,-103.648"/>
<polygon fill="green" stroke="green" stroke-width="0.467286" points="263.42,-105.65 267.306,-95.7932 258.122,-101.075 263.42,-105.65"/>
</g>
<!-- 4&#45;&gt;8 -->
<g id="edge4" class="edge"><title>4&#45;&gt;8</title>
<path fill="none" stroke="green" stroke-width="0.246528" d="M212.642,-141.813C209.718,-140.645 206.538,-139.447 203.553,-138.468 142.916,-118.578 122.287,-129.659 64.5534,-102.468 63.157,-101.81 61.7583,-101.068 60.3771,-100.27"/>
<polygon fill="green" stroke="green" stroke-width="0.246528" points="61.9853,-97.1358 51.7233,-94.5012 58.1025,-102.96 61.9853,-97.1358"/>
</g>
<!-- 4&#45;&gt;9 -->
<g id="edge21" class="edge"><title>4&#45;&gt;9</title>
<path fill="none" stroke="green" stroke-width="0.295161" d="M212.969,-142.226C209.93,-141.01 206.611,-139.684 203.553,-138.468 163.139,-122.391 150.686,-123.389 112.553,-102.468 111.2,-101.726 109.835,-100.918 108.478,-100.072"/>
<polygon fill="green" stroke="green" stroke-width="0.295161" points="110.113,-96.9491 99.8851,-94.1833 106.156,-102.723 110.113,-96.9491"/>
</g>
<!-- 4&#45;&gt;10 -->
<g id="edge1" class="edge"><title>4&#45;&gt;10</title>
<path fill="none" stroke="red" stroke-width="0.189278" d="M212.915,-138.694C200.208,-129.408 178.604,-113.62 162.121,-101.575"/>
<polygon fill="red" stroke="red" stroke-width="0.189278" points="164.182,-98.7461 154.043,-95.6717 160.052,-104.398 164.182,-98.7461"/>
</g>
<!-- 6&#45;&gt;5 -->
<g id="edge17" class="edge"><title>6&#45;&gt;5</title>
<path fill="none" stroke="red" stroke-width="0.214593" d="M185.417,-69.8C181.962,-60.8676 177.322,-48.8673 173.294,-38.4525"/>
<polygon fill="red" stroke="red" stroke-width="0.214593" points="176.551,-37.1694 169.679,-29.1049 170.022,-39.6942 176.551,-37.1694"/>
</g>
<!-- 7&#45;&gt;5 -->
<g id="edge30" class="edge"><title>7&#45;&gt;5</title>
<path fill="none" stroke="green" stroke-width="0.326714" d="M264.14,-75.6312C245.218,-64.2724 208.922,-42.4837 185.766,-28.5832"/>
<polygon fill="green" stroke="green" stroke-width="0.326714" points="187.398,-25.4808 177.023,-23.3347 183.795,-31.4825 187.398,-25.4808"/>
</g>
<!-- 8&#45;&gt;5 -->
<g id="edge16" class="edge"><title>8&#45;&gt;5</title>
<path fill="none" stroke="green" stroke-width="0.368262" d="M52.0091,-74.1981C55.8978,-71.3421 60.3289,-68.2576 64.5534,-65.6985 90.2186,-50.1507 121.379,-35.1916 142.023,-25.7865"/>
<polygon fill="green" stroke="green" stroke-width="0.368262" points="143.56,-28.9331 151.242,-21.6374 140.687,-22.5498 143.56,-28.9331"/>
</g>
<!-- 9&#45;&gt;5 -->
<g id="edge34" class="edge"><title>9&#45;&gt;5</title>
<path fill="none" stroke="red" stroke-width="0.314389" d="M99.4423,-73.4503C111.52,-62.766 131.221,-45.3374 145.793,-32.4455"/>
<polygon fill="red" stroke="red" stroke-width="0.314389" points="148.514,-34.7118 153.685,-25.4644 143.876,-29.4689 148.514,-34.7118"/>
</g>
<!-- 10&#45;&gt;5 -->
<g id="edge20" class="edge"><title>10&#45;&gt;5</title>
<path fill="none" stroke="green" stroke-width="0.391218" d="M145.733,-66.4636C148.843,-58.1006 152.661,-47.833 156.043,-38.7364"/>
<polygon fill="green" stroke="green" stroke-width="0.391218" points="159.411,-39.7204 159.616,-29.1275 152.85,-37.2807 159.411,-39.7204"/>
</g>
</g>
</svg>
